<?xml version="1.0" standalone="no"?>
<!DOCTYPE svg PUBLIC "-//W3C//DTD SVG 20010904//EN"
 "http://www.w3.org/TR/2001/REC-SVG-20010904/DTD/svg10.dtd">
<svg version="1.0" xmlns="http://www.w3.org/2000/svg"
 width="300.000000pt" height="144.000000pt" viewBox="0 0 300.000000 144.000000"
 preserveAspectRatio="xMidYMid meet">
<metadata>
Created by potrace 1.10, written by Peter Selinger 2001-2011
</metadata>
<g transform="translate(0.000000,144.000000) scale(0.100000,-0.100000)"
fill="#000000" stroke="none">
<path d="M561 1105 c-113 -32 -211 -108 -226 -176 -6 -28 -9 -29 -61 -29 -66
0 -108 -20 -134 -63 -33 -53 -24 -146 15 -161 25 -9 43 3 69 49 15 25 38 47
57 55 38 16 104 14 155 -4 58 -20 264 -118 264 -125 0 -4 -47 -53 -105 -111
l-104 -104 -11 30 c-7 16 -19 82 -28 146 -10 65 -22 120 -28 122 -6 2 -33 8
-59 12 l-48 7 7 -88 c8 -109 39 -251 65 -302 40 -78 124 -134 222 -148 63 -9
193 12 257 42 123 58 173 211 108 330 -16 29 -39 61 -51 73 l-22 21 -36 -56
-37 -55 20 -32 c44 -72 5 -164 -78 -188 -48 -13 -141 -13 -180 1 l-30 10 85
82 c94 90 219 248 261 330 22 42 27 66 27 124 0 63 -3 76 -30 115 -46 64 -120
101 -215 105 -46 2 -96 -3 -129 -12z m203 -36 c21 -6 48 -19 59 -30 12 -10 24
-19 28 -19 4 0 16 -20 28 -45 23 -50 27 -120 9 -162 -12 -27 -57 -103 -68
-113 -3 -3 -19 -25 -35 -49 -17 -25 -72 -88 -123 -140 -115 -118 -127 -138
-102 -168 21 -27 95 -47 147 -40 85 11 108 21 151 64 l44 44 -5 62 c-2 34 -7
71 -11 82 -4 12 -1 28 8 40 14 19 15 19 34 2 41 -37 49 -153 17 -219 -22 -42
-47 -63 -115 -95 -48 -23 -69 -26 -160 -27 -98 -1 -108 1 -153 27 -62 37 -101
91 -121 171 -30 122 -40 246 -20 253 14 5 31 -38 39 -102 3 -27 8 -63 10 -78
5 -35 40 -93 61 -101 26 -10 73 22 150 102 83 87 93 108 69 146 -19 28 -170
107 -251 131 -131 38 -178 29 -250 -47 l-39 -42 -3 39 c-2 21 2 48 8 60 13 25
63 57 82 53 7 -1 29 1 49 5 37 8 65 33 89 80 44 89 245 152 374 116z"/>
<path d="M570 1028 c-38 -11 -82 -39 -121 -79 -20 -21 -25 -34 -21 -55 5 -27
23 -54 36 -54 3 0 30 -11 60 -25 30 -14 57 -25 60 -25 4 0 28 -11 55 -24 58
-28 96 -39 133 -40 43 -1 83 69 84 148 1 34 -2 68 -6 76 -13 22 -60 74 -60 66
0 -3 -10 0 -22 8 -26 16 -143 19 -198 4z m201 -43 c35 -19 59 -62 59 -107 0
-34 -30 -111 -47 -121 -5 -3 -68 18 -139 48 -71 30 -144 57 -161 61 -40 7 -41
23 -8 62 58 69 215 99 296 57z"/>
<path d="M1190 921 l0 -121 33 0 c20 0 41 8 50 18 21 23 22 66 2 86 -13 13
-13 18 3 45 15 28 16 33 2 58 -12 22 -24 29 -53 31 l-37 3 0 -120z m64 67 c5
-23 -9 -58 -24 -58 -6 0 -10 20 -10 45 0 34 3 43 14 39 8 -3 16 -15 20 -26z
m-4 -98 c13 -24 5 -56 -15 -64 -12 -4 -15 4 -15 39 0 48 12 58 30 25z"/>
<path d="M1330 939 c0 -55 5 -109 10 -120 12 -22 71 -27 88 -6 6 7 12 61 14
120 3 96 1 107 -14 107 -16 0 -18 -12 -18 -105 0 -88 -3 -107 -16 -112 -26
-10 -34 17 -34 120 0 79 -3 97 -15 97 -12 0 -15 -18 -15 -101z"/>
<path d="M1489 1016 c-15 -32 -6 -64 31 -111 16 -21 30 -43 30 -50 0 -20 -24
-35 -48 -28 -16 4 -22 1 -22 -11 0 -23 62 -21 83 2 24 26 21 53 -8 93 -43 59
-50 77 -35 94 7 9 21 13 31 10 13 -4 19 -1 19 9 0 12 -10 16 -35 16 -28 0 -38
-5 -46 -24z"/>
<path d="M1620 920 c0 -100 3 -120 15 -120 13 0 15 20 15 120 0 100 -2 120
-15 120 -12 0 -15 -20 -15 -120z"/>
<path d="M1700 920 c0 -100 3 -120 15 -120 12 0 15 16 16 83 l0 82 31 -82 c45
-121 58 -112 58 37 0 100 -2 120 -15 120 -12 0 -15 -16 -16 -82 l0 -83 -30 83
c-45 121 -59 112 -59 -38z"/>
<path d="M1870 920 l0 -120 45 0 c33 0 45 4 45 15 0 10 -10 15 -30 15 -28 0
-30 2 -30 40 0 36 3 40 25 40 16 0 25 6 25 15 0 9 -9 15 -25 15 -22 0 -25 4
-25 35 0 31 3 35 25 35 16 0 25 6 25 15 0 11 -11 15 -40 15 l-40 0 0 -120z"/>
<path d="M1996 1024 c-25 -24 -19 -59 19 -108 19 -26 35 -52 35 -60 0 -22 -24
-36 -49 -29 -18 4 -22 2 -19 -8 7 -21 62 -23 82 -4 25 26 19 63 -21 117 -39
54 -37 84 6 82 11 0 21 5 21 13 0 18 -55 17 -74 -3z"/>
<path d="M2122 1028 c-20 -20 -14 -74 12 -105 41 -50 48 -70 30 -88 -9 -9 -24
-13 -35 -10 -13 4 -19 2 -19 -9 0 -28 66 -21 86 9 19 29 12 56 -28 107 -37 48
-35 84 5 81 18 -1 27 3 27 13 0 18 -61 19 -78 2z"/>
<path d="M2310 920 c0 -115 1 -120 21 -120 19 0 21 5 17 55 -3 54 -3 55 25 55
17 0 27 5 27 15 0 10 -10 15 -27 15 -25 0 -28 3 -28 35 0 32 3 35 28 35 17 0
27 5 27 15 0 11 -12 15 -45 15 l-45 0 0 -120z"/>
<path d="M2440 939 c0 -55 5 -109 10 -120 12 -22 71 -27 88 -6 6 7 12 61 14
120 3 96 1 107 -14 107 -16 0 -18 -12 -18 -105 0 -88 -3 -107 -16 -112 -26
-10 -34 17 -34 120 0 79 -3 97 -15 97 -12 0 -15 -18 -15 -101z"/>
<path d="M2600 920 l0 -120 45 0 c33 0 45 4 45 15 0 10 -10 15 -30 15 l-30 0
0 105 c0 87 -3 105 -15 105 -12 0 -15 -20 -15 -120z"/>
<path d="M2725 920 l0 -120 48 0 c35 0 47 4 45 13 -3 6 -17 13 -31 15 l-27 3
0 105 c0 92 -2 104 -17 104 -16 0 -18 -12 -18 -120z"/>
<path d="M1213 720 c-26 -11 -38 -59 -31 -132 7 -66 44 -96 86 -69 38 24 37
170 -1 196 -24 17 -24 17 -54 5z m53 -65 c9 -63 -2 -115 -25 -115 -24 0 -31
19 -31 80 0 61 7 80 30 80 14 0 20 -10 26 -45z"/>
<path d="M1602 714 c-20 -13 -22 -24 -22 -94 0 -58 4 -83 16 -94 21 -22 50
-20 75 5 18 18 21 30 17 95 -2 40 -8 77 -13 83 -20 18 -51 21 -73 5z m53 -94
c0 -70 -1 -75 -22 -78 -22 -3 -23 0 -23 71 0 77 4 90 30 85 12 -3 15 -18 15
-78z"/>
<path d="M2752 714 c-31 -21 -28 -55 10 -108 26 -38 29 -48 18 -61 -7 -9 -21
-13 -31 -10 -11 4 -19 2 -19 -5 0 -17 29 -24 56 -12 34 16 32 61 -5 113 -33
45 -31 69 5 69 27 0 32 15 8 24 -20 8 -16 9 -42 -10z"/>
<path d="M1330 615 c0 -87 3 -105 15 -105 11 0 15 12 15 49 0 47 2 50 28 53
23 3 27 8 30 41 4 48 -11 67 -54 67 l-34 0 0 -105z m60 66 c12 -23 3 -51 -16
-51 -9 0 -14 12 -14 35 0 39 14 46 30 16z"/>
<path d="M1450 615 c0 -87 3 -105 15 -105 11 0 15 12 15 49 0 47 2 50 28 53
23 3 27 8 30 41 4 48 -11 67 -54 67 l-34 0 0 -105z m65 66 c7 -24 -4 -51 -21
-51 -9 0 -14 12 -14 35 0 38 24 50 35 16z"/>
<path d="M1730 616 c0 -92 2 -106 16 -106 14 0 16 8 11 50 -7 61 5 58 23 -5 7
-25 19 -45 26 -45 17 0 17 -3 -1 51 -14 40 -14 49 -1 73 9 17 11 38 7 54 -6
22 -14 28 -44 30 l-37 3 0 -105z m55 48 c0 -18 -6 -30 -16 -32 -12 -2 -14 5
-11 33 5 43 27 42 27 -1z"/>
<path d="M1840 710 c0 -5 7 -10 15 -10 12 0 15 -17 15 -95 0 -78 3 -95 15 -95
12 0 15 17 15 95 0 78 3 95 15 95 8 0 15 5 15 10 0 6 -20 10 -45 10 -25 0 -45
-4 -45 -10z"/>
<path d="M1960 627 c0 -99 7 -117 46 -117 39 0 54 36 54 127 0 66 -3 83 -15
83 -11 0 -15 -19 -17 -92 -2 -75 -6 -93 -18 -93 -12 0 -16 18 -18 93 -2 73 -6
92 -17 92 -12 0 -15 -18 -15 -93z"/>
<path d="M2090 615 c0 -87 3 -105 15 -105 12 0 15 15 15 73 l1 72 24 -69 c14
-38 25 -71 25 -73 0 -2 4 -3 9 -3 6 0 11 47 13 105 2 79 0 105 -9 105 -9 0
-13 -22 -14 -72 l-1 -73 -25 73 c-37 108 -53 98 -53 -33z"/>
<path d="M2240 615 c0 -87 3 -105 15 -105 12 0 15 18 15 105 0 87 -3 105 -15
105 -12 0 -15 -18 -15 -105z"/>
<path d="M2300 710 c0 -5 7 -10 15 -10 12 0 15 -17 15 -95 0 -78 3 -95 15 -95
12 0 15 17 15 95 0 78 3 95 15 95 8 0 15 5 15 10 0 6 -20 10 -45 10 -25 0 -45
-4 -45 -10z"/>
<path d="M2421 670 c10 -27 19 -75 19 -105 0 -42 3 -55 15 -55 11 0 15 11 15
43 0 24 9 70 20 102 24 69 23 65 6 65 -8 0 -19 -20 -26 -47 l-13 -48 -11 45
c-7 27 -18 46 -28 48 -15 3 -14 -2 3 -48z"/>
<path d="M2598 615 c4 -120 20 -141 24 -32 l3 72 24 -72 c36 -106 51 -97 51
32 0 87 -3 105 -15 105 -12 0 -15 -15 -16 -67 l-1 -68 -22 65 c-13 36 -29 66
-37 68 -11 2 -13 -16 -11 -103z"/>
<path d="M1740 365 c0 -43 4 -75 10 -75 6 0 10 18 10 40 0 22 5 40 10 40 6 0
10 -18 10 -40 0 -22 5 -40 11 -40 6 0 9 19 7 48 -2 38 -6 47 -20 46 -13 -1
-18 6 -18 27 0 16 -4 29 -10 29 -6 0 -10 -32 -10 -75z"/>
<path d="M1940 368 c0 -71 1 -73 25 -74 19 -2 27 4 31 22 8 33 -3 74 -21 74
-9 0 -15 10 -15 25 0 14 -4 25 -10 25 -6 0 -10 -31 -10 -72z m40 -28 c0 -16
-4 -30 -10 -30 -5 0 -10 14 -10 30 0 17 5 30 10 30 6 0 10 -13 10 -30z"/>
<path d="M202 419 c-28 -11 -44 -51 -33 -82 12 -32 62 -73 106 -87 36 -12 120
-6 129 8 10 16 -49 90 -76 96 -15 3 -38 17 -50 32 -31 35 -49 43 -76 33z m44
-54 c4 -8 10 -15 14 -15 17 0 79 -45 76 -55 -5 -16 -62 -9 -89 11 -26 19 -40
50 -31 66 8 13 24 9 30 -7z"/>
<path d="M1204 366 c13 -77 29 -88 36 -26 4 33 7 40 13 27 4 -10 7 -32 7 -48
0 -48 17 -33 29 28 14 69 14 83 1 83 -5 0 -10 -18 -10 -41 0 -24 -4 -38 -10
-34 -5 3 -10 22 -10 41 0 48 -16 43 -25 -8 l-8 -43 -6 39 c-3 22 -11 41 -17
43 -7 2 -7 -16 0 -61z"/>
<path d="M2250 375 c0 -30 5 -55 10 -55 6 0 10 25 10 55 0 30 -4 55 -10 55 -5
0 -10 -25 -10 -55z"/>
<path d="M1696 358 c2 -73 19 -76 21 -5 1 39 -3 57 -11 57 -8 0 -11 -17 -10
-52z"/>
<path d="M2168 398 c-7 -20 3 -108 12 -108 9 0 19 88 12 108 -2 6 -8 12 -12
12 -4 0 -10 -6 -12 -12z"/>
<path d="M1327 383 c-14 -14 -7 -84 9 -90 19 -7 51 21 35 31 -6 4 -11 2 -11
-3 0 -6 -4 -11 -10 -11 -5 0 -10 7 -10 15 0 8 9 15 20 15 22 0 26 20 8 38 -13
13 -31 16 -41 5z"/>
<path d="M1440 364 c-13 -34 3 -73 30 -71 17 1 20 8 20 47 0 39 -3 46 -20 47
-14 1 -24 -7 -30 -23z m40 -18 c0 -14 -4 -27 -9 -30 -12 -8 -22 20 -15 39 9
23 24 18 24 -9z"/>
<path d="M1519 383 c-5 -20 0 -82 7 -80 5 1 8 14 6 30 -2 18 2 29 12 33 23 9
20 23 -4 21 -11 -1 -20 -3 -21 -4z"/>
<path d="M1579 366 c-9 -20 -9 -32 0 -52 13 -30 44 -29 50 1 3 16 1 17 -11 7
-8 -6 -18 -9 -21 -5 -13 12 -7 23 14 23 15 0 20 5 17 22 -4 33 -35 35 -49 4z"/>
<path d="M1826 374 c-11 -28 -6 -61 10 -74 12 -11 18 -11 30 2 11 11 12 18 5
22 -6 4 -11 2 -11 -3 0 -6 -4 -11 -10 -11 -5 0 -10 7 -10 15 0 8 9 15 20 15
11 0 20 4 20 9 0 23 -14 41 -30 41 -10 0 -21 -7 -24 -16z"/>
<path d="M2024 376 c-3 -8 -4 -29 -2 -48 2 -25 8 -33 23 -33 12 0 21 8 22 20
2 11 0 14 -3 8 -8 -18 -24 -16 -24 2 0 8 9 15 20 15 23 0 24 4 10 31 -12 22
-38 25 -46 5z"/>
<path d="M2107 383 c-12 -11 -8 -36 10 -55 15 -17 15 -18 0 -18 -10 0 -17 -4
-17 -10 0 -15 26 -12 40 5 10 13 9 19 -6 37 -14 15 -16 22 -6 25 6 3 12 9 12
14 0 10 -23 12 -33 2z"/>
</g>
</svg>
